<svg width="43" height="43" viewBox="0 0 43 43" fill="none" xmlns="http://www.w3.org/2000/svg">
<path fill-rule="evenodd" clip-rule="evenodd" d="M12.6361 0.129C14.9288 0.0234545 15.6598 0 21.5 0C27.3402 0 28.0712 0.0254091 30.3619 0.129C32.6526 0.232591 34.2163 0.598091 35.5845 1.12777C37.0171 1.66918 38.3169 2.5155 39.3919 3.61005C40.4865 4.68309 41.3308 5.98091 41.8703 7.41555C42.4019 8.78373 42.7655 10.3474 42.871 12.6342C42.9765 14.9308 43 15.6618 43 21.5C43 27.3402 42.9746 28.0712 42.871 30.3639C42.7674 32.6507 42.4019 34.2143 41.8703 35.5825C41.3308 37.0173 40.485 38.3173 39.3919 39.3919C38.3169 40.4865 37.0171 41.3308 35.5845 41.8703C34.2163 42.4019 32.6526 42.7655 30.3658 42.871C28.0712 42.9765 27.3402 43 21.5 43C15.6598 43 14.9288 42.9746 12.6361 42.871C10.3493 42.7674 8.78568 42.4019 7.4175 41.8703C5.98271 41.3307 4.68274 40.485 3.60809 39.3919C2.51429 38.3182 1.66784 37.0189 1.12777 35.5845C0.598091 34.2163 0.234545 32.6526 0.129 30.3658C0.0234545 28.0692 0 27.3382 0 21.5C0 15.6598 0.0254091 14.9288 0.129 12.6381C0.232591 10.3474 0.598091 8.78373 1.12777 7.41555C1.66864 5.98107 2.51573 4.68175 3.61005 3.60809C4.68317 2.51453 5.98183 1.66809 7.41555 1.12777C8.78373 0.598091 10.3474 0.234545 12.6342 0.129H12.6361ZM30.188 3.999C27.9207 3.89541 27.2405 3.87391 21.5 3.87391C15.7595 3.87391 15.0793 3.89541 12.812 3.999C10.7148 4.09477 9.57727 4.44464 8.81891 4.73977C7.81623 5.13068 7.09891 5.59391 6.34641 6.34641C5.63309 7.04037 5.08413 7.88519 4.73977 8.81891C4.44464 9.57727 4.09477 10.7148 3.999 12.812C3.89541 15.0793 3.87391 15.7595 3.87391 21.5C3.87391 27.2405 3.89541 27.9207 3.999 30.188C4.09477 32.2852 4.44464 33.4227 4.73977 34.1811C5.08377 35.1134 5.633 35.9597 6.34641 36.6536C7.04027 37.367 7.88659 37.9162 8.81891 38.2602C9.57727 38.5554 10.7148 38.9052 12.812 39.001C15.0793 39.1046 15.7575 39.1261 21.5 39.1261C27.2425 39.1261 27.9207 39.1046 30.188 39.001C32.2852 38.9052 33.4227 38.5554 34.1811 38.2602C35.1838 37.8693 35.9011 37.4061 36.6536 36.6536C37.367 35.9597 37.9162 35.1134 38.2602 34.1811C38.5554 33.4227 38.9052 32.2852 39.001 30.188C39.1046 27.9207 39.1261 27.2405 39.1261 21.5C39.1261 15.7595 39.1046 15.0793 39.001 12.812C38.9052 10.7148 38.5554 9.57727 38.2602 8.81891C37.8693 7.81623 37.4061 7.09891 36.6536 6.34641C35.9596 5.63314 35.1148 5.08418 34.1811 4.73977C33.4227 4.44464 32.2852 4.09477 30.188 3.999ZM18.7539 28.1279C20.2875 28.7663 21.9952 28.8524 23.5854 28.3716C25.1755 27.8908 26.5494 26.8729 27.4723 25.4917C28.3953 24.1104 28.8101 22.4516 28.6459 20.7985C28.4817 19.1454 27.7487 17.6006 26.572 16.428C25.822 15.6783 24.915 15.1044 23.9165 14.7473C22.9179 14.3903 21.8527 14.2591 20.7973 14.3632C19.742 14.4673 18.7229 14.8041 17.8133 15.3493C16.9038 15.8945 16.1265 16.6346 15.5373 17.5163C14.9481 18.3981 14.5617 19.3994 14.406 20.4484C14.2503 21.4973 14.3291 22.5678 14.6367 23.5826C14.9443 24.5974 15.4731 25.5315 16.185 26.3174C16.897 27.1034 17.7743 27.7217 18.7539 28.1279ZM13.6857 13.6857C14.7119 12.6595 15.9302 11.8455 17.2709 11.2902C18.6117 10.7348 20.0488 10.4489 21.5 10.4489C22.9512 10.4489 24.3883 10.7348 25.7291 11.2902C27.0698 11.8455 28.2881 12.6595 29.3143 13.6857C30.3405 14.7119 31.1545 15.9302 31.7098 17.2709C32.2652 18.6117 32.5511 20.0488 32.5511 21.5C32.5511 22.9512 32.2652 24.3883 31.7098 25.7291C31.1545 27.0698 30.3405 28.2881 29.3143 29.3143C27.2418 31.3867 24.4309 32.5511 21.5 32.5511C18.5691 32.5511 15.7582 31.3867 13.6857 29.3143C11.6133 27.2418 10.449 24.4309 10.4489 21.5C10.4489 18.5691 11.6133 15.7582 13.6857 13.6857ZM35.002 12.0947C35.2563 11.8548 35.4599 11.5664 35.6007 11.2464C35.7415 10.9264 35.8167 10.5815 35.8218 10.2319C35.8269 9.88236 35.7618 9.53534 35.6304 9.2114C35.4989 8.88746 35.3038 8.59318 35.0567 8.34599C34.8095 8.09879 34.5152 7.90371 34.1912 7.77228C33.8673 7.64086 33.5203 7.57577 33.1707 7.58087C32.8212 7.58596 32.4762 7.66114 32.1562 7.80195C31.8363 7.94276 31.5478 8.14634 31.3079 8.40064C30.8414 8.89519 30.586 9.5521 30.5959 10.2319C30.6058 10.9117 30.8802 11.5609 31.361 12.0416C31.8417 12.5224 32.4909 12.7969 33.1707 12.8068C33.8505 12.8167 34.5074 12.5613 35.002 12.0947Z" fill="#F8F8F8"/>
</svg>
