<svg width="116" height="54" viewBox="0 0 116 54" fill="none" xmlns="http://www.w3.org/2000/svg">
<path d="M31.46 29.44C31.46 31.28 31.53 32.8 31.67 34C30.31 33.94 28.02 33.91 24.8 33.91C20.44 33.91 17.18 33.94 15.02 34V33.4C15.68 33.36 16.16 33.28 16.46 33.16C16.78 33.04 16.99 32.81 17.09 32.47C17.21 32.13 17.27 31.58 17.27 30.82V15.94C17.27 15.18 17.21 14.63 17.09 14.29C16.99 13.95 16.78 13.72 16.46 13.6C16.16 13.48 15.68 13.4 15.02 13.36V12.76C17.18 12.82 20.44 12.85 24.8 12.85C27.74 12.85 29.83 12.82 31.07 12.76C30.93 14.42 30.86 15.9 30.86 17.2C30.86 18.08 30.89 18.76 30.95 19.24H30.26C29.96 17.1 29.42 15.6 28.64 14.74C27.86 13.88 26.76 13.45 25.34 13.45H24.11C23.49 13.45 23.04 13.5 22.76 13.6C22.48 13.7 22.29 13.9 22.19 14.2C22.09 14.48 22.04 14.94 22.04 15.58V23.02H23C24.06 23.02 24.86 22.63 25.4 21.85C25.96 21.07 26.35 20.14 26.57 19.06H27.26C27.2 19.9 27.17 20.84 27.17 21.88V23.32C27.17 24.34 27.23 25.76 27.35 27.58H26.66C26.24 24.94 25.02 23.62 23 23.62H22.04V31.18C22.04 31.82 22.09 32.29 22.19 32.59C22.29 32.87 22.48 33.06 22.76 33.16C23.04 33.26 23.49 33.31 24.11 33.31H25.58C27 33.31 28.14 32.83 29 31.87C29.88 30.89 30.5 29.24 30.86 26.92H31.55C31.49 27.58 31.46 28.42 31.46 29.44ZM46.6602 12.6719L52.1387 28.1406L57.5879 12.6719H63.3594V34H58.9502V28.1699L59.3896 18.1064L53.6328 34H50.6152L44.873 18.1211L45.3125 28.1699V34H40.918V12.6719H46.6602ZM89.9404 26.8955C89.7744 29.1904 88.9248 30.9971 87.3916 32.3154C85.8682 33.6338 83.8564 34.293 81.3564 34.293C78.6221 34.293 76.4688 33.375 74.8965 31.5391C73.334 29.6934 72.5527 27.1641 72.5527 23.9512V22.6475C72.5527 20.5967 72.9141 18.79 73.6367 17.2275C74.3594 15.665 75.3896 14.4688 76.7275 13.6387C78.0752 12.7988 79.6377 12.3789 81.415 12.3789C83.876 12.3789 85.8584 13.0381 87.3623 14.3564C88.8662 15.6748 89.7354 17.5254 89.9697 19.9082H85.5752C85.4678 18.5312 85.082 17.5352 84.418 16.9199C83.7637 16.2949 82.7627 15.9824 81.415 15.9824C79.9502 15.9824 78.8516 16.5098 78.1191 17.5645C77.3965 18.6094 77.0254 20.2354 77.0059 22.4424V24.0537C77.0059 26.3584 77.3525 28.043 78.0459 29.1074C78.749 30.1719 79.8525 30.7041 81.3564 30.7041C82.7139 30.7041 83.7246 30.3965 84.3887 29.7812C85.0625 29.1562 85.4482 28.1943 85.5459 26.8955H89.9404Z" fill="#1A6166"/>
<path d="M31.46 29.44C31.46 31.28 31.53 32.8 31.67 34C30.31 33.94 28.02 33.91 24.8 33.91C20.44 33.91 17.18 33.94 15.02 34V33.4C15.68 33.36 16.16 33.28 16.46 33.16C16.78 33.04 16.99 32.81 17.09 32.47C17.21 32.13 17.27 31.58 17.27 30.82V15.94C17.27 15.18 17.21 14.63 17.09 14.29C16.99 13.95 16.78 13.72 16.46 13.6C16.16 13.48 15.68 13.4 15.02 13.36V12.76C17.18 12.82 20.44 12.85 24.8 12.85C27.74 12.85 29.83 12.82 31.07 12.76C30.93 14.42 30.86 15.9 30.86 17.2C30.86 18.08 30.89 18.76 30.95 19.24H30.26C29.96 17.1 29.42 15.6 28.64 14.74C27.86 13.88 26.76 13.45 25.34 13.45H24.11C23.49 13.45 23.04 13.5 22.76 13.6C22.48 13.7 22.29 13.9 22.19 14.2C22.09 14.48 22.04 14.94 22.04 15.58V23.02H23C24.06 23.02 24.86 22.63 25.4 21.85C25.96 21.07 26.35 20.14 26.57 19.06H27.26C27.2 19.9 27.17 20.84 27.17 21.88V23.32C27.17 24.34 27.23 25.76 27.35 27.58H26.66C26.24 24.94 25.02 23.62 23 23.62H22.04V31.18C22.04 31.82 22.09 32.29 22.19 32.59C22.29 32.87 22.48 33.06 22.76 33.16C23.04 33.26 23.49 33.31 24.11 33.31H25.58C27 33.31 28.14 32.83 29 31.87C29.88 30.89 30.5 29.24 30.86 26.92H31.55C31.49 27.58 31.46 28.42 31.46 29.44ZM46.6602 12.6719L52.1387 28.1406L57.5879 12.6719H63.3594V34H58.9502V28.1699L59.3896 18.1064L53.6328 34H50.6152L44.873 18.1211L45.3125 28.1699V34H40.918V12.6719H46.6602ZM89.9404 26.8955C89.7744 29.1904 88.9248 30.9971 87.3916 32.3154C85.8682 33.6338 83.8564 34.293 81.3564 34.293C78.6221 34.293 76.4688 33.375 74.8965 31.5391C73.334 29.6934 72.5527 27.1641 72.5527 23.9512V22.6475C72.5527 20.5967 72.9141 18.79 73.6367 17.2275C74.3594 15.665 75.3896 14.4688 76.7275 13.6387C78.0752 12.7988 79.6377 12.3789 81.415 12.3789C83.876 12.3789 85.8584 13.0381 87.3623 14.3564C88.8662 15.6748 89.7354 17.5254 89.9697 19.9082H85.5752C85.4678 18.5312 85.082 17.5352 84.418 16.9199C83.7637 16.2949 82.7627 15.9824 81.415 15.9824C79.9502 15.9824 78.8516 16.5098 78.1191 17.5645C77.3965 18.6094 77.0254 20.2354 77.0059 22.4424V24.0537C77.0059 26.3584 77.3525 28.043 78.0459 29.1074C78.749 30.1719 79.8525 30.7041 81.3564 30.7041C82.7139 30.7041 83.7246 30.3965 84.3887 29.7812C85.0625 29.1562 85.4482 28.1943 85.5459 26.8955H89.9404Z" fill="#1A6166"/>
<g clip-path="url(#clip0_27_1666)">
<path d="M82.1812 47.15C82.875 47.8438 84.4937 49 86.3438 49C92.5875 49 93.975 44.375 94.2062 40.675C94.6687 35.3562 96.0562 35.5875 96.75 35.5875C98.3687 35.5875 98.8312 36.5125 98.8312 38.1313C97.4437 39.0562 96.5187 40.4438 96.5187 42.0625C96.5187 44.6063 98.6 46.6875 101.144 46.6875C103.688 46.6875 105.769 44.6063 105.769 42.0625C105.769 39.5187 103.688 37.4375 101.144 37.4375H100.681C100.219 35.3563 99.0625 33.275 96.5187 33.275C92.8187 33.275 91.8938 36.5125 91.6625 39.9813C91.4312 44.8375 89.8125 46.6875 86.3438 46.6875C85.4188 46.6875 84.4937 46.225 84.0312 45.7625C82.6438 44.6063 82.875 40.4438 82.875 40.4438C87.5 40.4438 92.125 36.2812 93.7437 29.3438L93.2812 29.1125C93.975 26.3375 94.4375 23.1 94.4375 20.7875C94.4375 18.2437 93.7437 16.3937 92.125 15.0062C90.5063 13.6187 88.6562 13.1562 87.2688 13.1562C86.8062 12.4625 86.1125 12 85.1875 12C84.0312 12 82.875 12.925 82.875 14.3125C82.875 15.7 83.8 16.625 85.1875 16.625C86.1125 16.625 86.8062 16.1625 87.0375 15.4688C88.1938 15.4688 89.35 15.9312 90.5063 16.8562C91.6625 17.7812 92.125 18.9375 92.125 20.7875C92.125 22.8687 91.6625 25.875 90.9688 28.8813L90.5063 28.65C89.8125 31.1938 87.5 36.975 82.875 36.975H80.5625C75.9375 36.975 73.625 31.1938 72.9313 28.65L72.4688 28.8813C71.775 25.875 71.3125 22.8687 71.3125 20.7875C71.3125 18.9375 71.775 17.7812 72.9313 16.8562C73.8563 15.9312 75.2438 15.7 76.4 15.4688C76.6312 16.1625 77.325 16.625 78.25 16.625C79.6375 16.625 80.5625 15.7 80.5625 14.3125C80.5625 12.925 79.6375 12 78.25 12C77.325 12 76.6312 12.4625 76.1687 13.1562C74.7812 13.1562 72.9312 13.6187 71.3125 15.0062C69.6938 16.3937 69 18.2437 69 20.7875C69 23.1 69.4625 26.3375 70.1562 29.3438L69.6938 29.575C71.3125 36.2812 75.9375 40.4438 80.5625 40.4438C80.5625 40.4438 80.3312 45.5312 82.1812 47.15ZM101.375 44.375C99.9875 44.375 99.0625 43.45 99.0625 42.0625C99.0625 40.675 99.9875 39.75 101.375 39.75C102.763 39.75 103.688 40.675 103.688 42.0625C103.688 43.45 102.531 44.375 101.375 44.375Z" fill="#2C63C9"/>
</g>
<defs>
<clipPath id="clip0_27_1666">
<rect width="37" height="37" fill="white" transform="translate(69 12)"/>
</clipPath>
</defs>
</svg>
