<svg width="43" height="43" viewBox="0 0 43 43" fill="none" xmlns="http://www.w3.org/2000/svg">
<path d="M42.3603 8.84647C40.8643 9.50939 39.2571 9.9573 37.5676 10.1598C39.3109 9.11664 40.6151 7.47489 41.2369 5.54085C39.5991 6.5137 37.8065 7.19849 35.9372 7.56543C34.6801 6.22323 33.0151 5.3336 31.2006 5.03465C29.3861 4.73571 27.5237 5.04418 25.9025 5.91217C24.2813 6.78017 22.992 8.15912 22.2348 9.83494C21.4776 11.5108 21.2948 13.3897 21.7149 15.18C18.3962 15.0134 15.1496 14.1508 12.1858 12.6482C9.22202 11.1456 6.6073 9.03668 4.51134 6.45818C3.79467 7.69443 3.38259 9.12776 3.38259 10.6543C3.38179 12.0285 3.72019 13.3816 4.36779 14.5937C5.01538 15.8057 5.95213 16.8392 7.09492 17.6023C5.76958 17.5602 4.47348 17.2021 3.3145 16.5578V16.6653C3.31437 18.5927 3.98106 20.4607 5.20146 21.9525C6.42185 23.4443 8.12078 24.4679 10.01 24.8496C8.78049 25.1824 7.49148 25.2314 6.24029 24.993C6.77331 26.6514 7.81158 28.1016 9.20974 29.1405C10.6079 30.1795 12.296 30.7553 14.0376 30.7872C11.0811 33.1082 7.42976 34.3671 3.67104 34.3616C3.00523 34.3618 2.33997 34.3229 1.67871 34.2451C5.49402 36.6982 9.93532 38.0001 14.4712 37.9951C29.8258 37.9951 38.2198 25.2778 38.2198 14.2483C38.2198 13.89 38.2108 13.5281 38.1947 13.1698C39.8274 11.989 41.2368 10.5269 42.3567 8.85185L42.3603 8.84647Z" fill="#F8F8F8"/>
</svg>
